<svg version="1.1" id="Layer_1" xmlns:x="ns_extend;" xmlns:i="ns_ai;" xmlns:graph="ns_graphs;" xmlns="http://www.w3.org/2000/svg" xmlns:xlink="http://www.w3.org/1999/xlink" x="0px" y="0px" viewBox="0 0 64 64" style="enable-background:new 0 0 64 64;" xml:space="preserve">
 <style type="text/css">
  .st0{fill-rule:evenodd;clip-rule:evenodd;fill:#FFFFFF;}
 </style>
 <metadata>
  <sfw xmlns="ns_sfw;">
   <slices>
   </slices>
   <sliceSourceBounds bottomLeftOrigin="true" height="64" width="64" x="0" y="0">
   </sliceSourceBounds>
  </sfw>
 </metadata>
 <path class="st0" d="M0,32C0,14.3,14.3,0,32,0c17.7,0,32,14.3,32,32c0,17.7-14.3,32-32,32h-2.6v-0.1C13,62.6,0,48.8,0,32z
	 M32.8,58.8c14.4-0.4,26-12.3,26-26.8c0-14.8-12-26.8-26.8-26.8C17.2,5.2,5.2,17.2,5.2,32c0,14.8,12,26.8,26.8,26.8H32.8z">
 </path>
 <path class="st0" d="M19,8.6c-0.4-0.1-0.7-0.2-1.1-0.4l1.7-4.9c0.2,0.1,0.4,0.1,0.8,0.2c0.6,0.2,1.3,0.4,1.7,0.6l0,0l0,0
	c0.1,0,0.2,0.1,0.4,0.1c0.7,0.3,1.5,0.6,2.2,0.9l0,0l0.1,0.1c0.3,0.2,0.8,0.4,1.2,0.6c0.2,0.1,0.4,0.2,0.6,0.3l0.1,0l0.1,0
	c0,0,0,0,0,0c0.1,0.1,0.4,0.2,0.7,0.4l0.1,0l0,0c0,0,0.1,0,0.1,0.1c0,0,0.1,0,0.1,0.1c0,0,0,0,0,0c0,0,0,0,0.1,0l0,0c0,0,0,0,0.1,0
	c0,0,0.1,0,0.1,0.1c0.2,0.1,0.5,0.3,0.7,0.4c0.3,0.2,0.7,0.4,1,0.6c0.3,0.2,0.7,0.5,1,0.6c0,0,0.1,0.1,0.1,0.1
	c0.2,0.1,0.4,0.2,0.5,0.3c0.2,0.1,0.4,0.3,0.6,0.4c0.1,0.1,0.2,0.1,0.2,0.2c0.1,0.1,0.2,0.1,0.3,0.2c0.1,0.1,0.1,0.1,0.2,0.1
	c0,0,0,0,0.1,0c0,0,0,0,0,0l0.1,0l0.1,0c2.9,2.2,5.4,4.7,7.6,7.6l0,0l0,0c2.4,3.2,4.3,6.7,5.6,10.5c3.9,11,2.8,23.6-3.4,33.6
	l-4.4-2.7c5.3-8.6,6.3-19.6,2.9-29.2l0,0l0,0c-1.1-3.2-2.8-6.3-4.9-9c-1.9-2.5-4.1-4.7-6.6-6.6c-0.1-0.1-0.3-0.2-0.4-0.3
	c-0.1-0.1-0.2-0.2-0.3-0.2c-0.1-0.1-0.1-0.1-0.2-0.2c-0.2-0.1-0.3-0.3-0.5-0.4c-0.1-0.1-0.2-0.1-0.2-0.1c0,0,0,0,0,0l-0.1,0L28.1,13
	c-0.1-0.1-0.3-0.2-0.4-0.2c-0.2-0.2-0.4-0.3-0.6-0.4L27,12.3l-0.1-0.1c0,0,0,0,0,0c0,0-0.1,0-0.2-0.1c-0.1-0.1-0.3-0.2-0.5-0.3
	c-0.2-0.1-0.5-0.3-0.6-0.4c-0.1,0-0.2-0.1-0.2-0.1l0,0c0,0,0,0,0,0c0,0,0,0,0,0c0,0-0.1-0.1-0.1-0.1c-0.1,0-0.1-0.1-0.2-0.1
	c0,0-0.1-0.1-0.2-0.1c-0.1-0.1-0.2-0.1-0.4-0.2c0,0,0,0,0,0c-0.2-0.1-0.4-0.2-0.6-0.3c-0.4-0.2-0.8-0.4-1.2-0.5l0,0l-0.1-0.1
	c-0.5-0.2-1.1-0.4-1.7-0.7C20.6,9.1,20.5,9,20.3,9C19.9,8.8,19.5,8.7,19,8.6z M25.4,11.3C25.4,11.3,25.4,11.3,25.4,11.3L25.4,11.3z
	 M25.4,11.3C25.4,11.3,25.4,11.3,25.4,11.3L25.4,11.3z">
 </path>
 <path class="st0" d="M30,20.9c7.8-1.4,15.1-5.8,20-12.1l4.1,3.2C48.3,19.3,40,24.4,30.9,26l0,0c-4.5,0.8-9.2,0.8-13.7,0
	c-4.5-0.8-8.9-2.4-12.9-4.8L7,16.8c3.4,2,7.2,3.5,11.1,4.2l0,0l0,0C22,21.6,26,21.6,30,20.9">
 </path>
 <path class="st0" d="M16.1,58.3c4.4-22.6,27.5-35.1,46.3-30l-1.4,5c-16-4.4-36,6.4-39.9,26L16.1,58.3z">
 </path>
</svg>