<svg version="1.1" id="Layer_1" xmlns="http://www.w3.org/2000/svg" xmlns:xlink="http://www.w3.org/1999/xlink" x="0px" y="0px" viewBox="0 0 43.7 35" style="enable-background:new 0 0 43.7 35;" xml:space="preserve">
 <style type="text/css">
  .st0{fill:#6D4AFF;}
	.st1{fill-rule:evenodd;clip-rule:evenodd;fill:url(#SVGID_1_);}
	.st2{fill-rule:evenodd;clip-rule:evenodd;fill:url(#SVGID_2_);}
 </style>
 <g>
  <path class="st0" d="M0,1c0-0.9,1-1.3,1.6-0.8l17.3,14.4c1.7,1.4,4.1,1.4,5.8,0L42,0.2c0.7-0.5,1.6-0.1,1.6,0.8v29.5
		c0,2.5-2,4.5-4.5,4.5H4.5C2,35,0,33,0,30.5V1z">
  </path>
  <linearGradient id="SVGID_1_" gradientUnits="userSpaceOnUse" x1="16.3798" y1="4.9734" x2="6.4279" y2="47.4594" gradientTransform="matrix(1 0 0 -1 0 25.9728)">
   <stop offset="0" style="stop-color:#E2DBFF">
   </stop>
   <stop offset="1" style="stop-color:#6D4AFF">
   </stop>
  </linearGradient>
  <path class="st1" d="M27.7,12.1L27.7,12.1L19,19.8c-1.5,1.3-3.7,1.3-5.2,0.1L0,8.4V1c0-0.9,1-1.3,1.6-0.8l17.3,14.4
		c1.7,1.4,4.1,1.4,5.8,0L27.7,12.1z">
  </path>
  <linearGradient id="SVGID_2_" gradientUnits="userSpaceOnUse" x1="57.6533" y1="-31.7242" x2="23.6914" y2="40.8256" gradientTransform="matrix(1 0 0 -1 0 25.9728)">
   <stop offset="0.271" style="stop-color:#E2DBFF">
   </stop>
   <stop offset="1" style="stop-color:#6D4AFF">
   </stop>
  </linearGradient>
  <path class="st2" d="M34.4,6.6V35h4.8c2.5,0,4.5-2,4.5-4.5V1c0-0.9-1-1.3-1.6-0.8L34.4,6.6z">
  </path>
 </g>
</svg>